<svg id="svg" version="1.1" xmlns="http://www.w3.org/2000/svg" xmlns:xlink="http://www.w3.org/1999/xlink" width="400" height="400" viewBox="0, 0, 400,400"><g id="svgg"><path id="path0" d="M173.586 100.380 C 156.554 102.963,146.994 119.191,151.307 138.198 C 154.506 152.294,167.497 174.770,184.787 196.120 L 187.899 199.963 183.366 205.714 C 172.790 219.129,163.369 233.440,157.837 244.492 C 143.289 273.556,149.942 296.749,173.661 299.656 C 180.827 300.534,226.809 299.897,229.883 298.876 C 247.620 292.989,254.100 276.648,246.940 255.859 C 242.246 242.230,229.397 221.315,214.363 202.832 L 212.059 200.000 214.365 197.168 C 229.795 178.214,242.969 156.500,247.373 142.762 C 253.711 122.989,247.432 107.220,230.948 101.511 L 227.148 100.195 201.367 100.136 C 187.188 100.104,174.686 100.213,173.586 100.380 M226.588 119.824 C 237.679 125.448,227.686 150.702,201.268 183.812 C 199.829 185.616,200.334 186.034,194.292 178.027 C 170.035 145.880,162.696 124.680,174.023 119.484 C 175.485 118.813,177.158 118.767,200.028 118.759 L 224.469 118.750 226.588 119.824 M203.750 219.434 C 228.397 251.408,237.089 273.831,227.179 279.881 L 225.257 281.055 199.445 281.055 C 175.082 281.055,173.551 281.014,172.174 280.330 C 165.853 277.187,168.132 263.361,177.729 246.643 C 182.758 237.882,198.840 214.844,199.927 214.844 C 200.083 214.844,201.804 216.909,203.750 219.434 " stroke="none" fill="#040404" fill-rule="evenodd"></path><path id="path1" d="M182.227 0.593 C 67.303 11.114,-14.712 115.228,1.971 229.418 C 17.216 333.769,112.131 408.695,217.321 399.416 C 336.394 388.912,419.676 277.740,396.265 160.547 C 376.316 60.682,283.502 -8.678,182.227 0.593 M229.114 100.784 C 237.449 102.916,243.968 108.282,247.629 116.023 C 255.539 132.748,244.531 159.586,214.025 197.949 L 212.394 200.000 214.023 202.051 C 232.803 225.694,244.916 246.238,248.682 260.830 C 253.224 278.435,246.297 293.314,231.051 298.702 L 227.930 299.805 199.414 299.805 L 170.898 299.805 167.773 298.740 C 148.938 292.326,144.599 271.633,156.779 246.305 C 162.567 234.268,171.943 219.914,184.275 204.208 L 187.565 200.018 184.273 195.810 C 149.595 151.482,141.705 124.709,158.393 107.999 C 161.969 104.419,166.098 102.017,170.793 100.787 C 175.291 99.608,224.507 99.606,229.114 100.784 M175.439 119.134 C 166.190 121.368,166.984 134.058,177.533 152.638 C 182.601 161.564,198.368 184.162,199.875 184.660 C 200.128 184.744,202.678 181.682,205.541 177.855 C 229.468 145.874,236.842 125.382,226.427 119.813 C 224.716 118.898,178.941 118.289,175.439 119.134 M195.979 220.020 C 171.690 251.706,162.325 276.239,172.954 280.341 C 175.841 281.454,224.081 281.441,226.172 280.325 C 236.865 274.621,229.720 254.463,205.558 222.168 C 202.705 218.354,200.208 215.234,200.009 215.234 C 199.810 215.234,197.996 217.388,195.979 220.020 " stroke="none" fill="#fbfbfb" fill-rule="evenodd"></path><path id="path2" d="M241.992 108.203 C 242.831 109.063,243.606 109.766,243.713 109.766 C 243.821 109.766,243.222 109.063,242.383 108.203 C 241.544 107.344,240.769 106.641,240.662 106.641 C 240.554 106.641,241.153 107.344,241.992 108.203 M230.950 129.688 C 230.950 130.439,231.030 130.747,231.129 130.371 C 231.227 129.995,231.227 129.380,231.129 129.004 C 231.030 128.628,230.950 128.936,230.950 129.688 M230.958 270.117 C 230.962 270.977,231.042 271.282,231.136 270.796 C 231.229 270.310,231.226 269.607,231.128 269.234 C 231.030 268.860,230.954 269.258,230.958 270.117 " stroke="none" fill="#a0a0a0" fill-rule="evenodd"></path><path id="path3" d="" stroke="none" fill="#7c7c7c" fill-rule="evenodd"></path><path id="path4" d="" stroke="none" fill="#747474" fill-rule="evenodd"></path></g></svg>